{"asset":{"generator":"Khronos glTF Blender I/O v5.0.21","version":"2.0"},"scene":0,"scenes":[{"name":"Scene","nodes":[0,1,2,3,4]}],"nodes":[{"mesh":0,"name":"Site","translation":[0,0.05000000447034836,-0.5]},{"mesh":1,"name":"Residential_West","translation":[-0.9602500200271606,0.13824999332427979,1.2799999713897705]},{"mesh":2,"name":"Residential_East","translation":[0.9602500200271606,0.13824999332427979,1.2799999713897705]},{"mesh":3,"name":"Commercial_Campus","translation":[-0.5999999642372131,0.4699999988079071,2.049999952316284]},{"mesh":4,"name":"Landscape","translation":[0,0.10000000149011612,0]}],"materials":[{"doubleSided":true,"name":"Site | BAKED shading","pbrMetallicRoughness":{"baseColorFactor":[1,1,1,1],"baseColorTexture":{"index":0},"metallicFactor":0,"roughnessFactor":1},"extensions":{"KHR_materials_unlit":{}}},{"doubleSided":true,"name":"Residential_West | BAKED shading","pbrMetallicRoughness":{"baseColorFactor":[1,1,1,1],"baseColorTexture":{"index":1},"metallicFactor":0,"roughnessFactor":1},"extensions":{"KHR_materials_unlit":{}}},{"doubleSided":true,"name":"Residential_East | BAKED shading","pbrMetallicRoughness":{"baseColorFactor":[1,1,1,1],"baseColorTexture":{"index":2},"metallicFactor":0,"roughnessFactor":1},"extensions":{"KHR_materials_unlit":{}}},{"doubleSided":true,"name":"Commercial_Campus | BAKED shading","pbrMetallicRoughness":{"baseColorFactor":[1,1,1,1],"baseColorTexture":{"index":3},"metallicFactor":0,"roughnessFactor":1},"extensions":{"KHR_materials_unlit":{}}},{"doubleSided":true,"name":"Landscape | BAKED shading","pbrMetallicRoughness":{"baseColorFactor":[1,1,1,1],"baseColorTexture":{"index":4},"metallicFactor":0,"roughnessFactor":1},"extensions":{"KHR_materials_unlit":{}}}],"meshes":[{"name":"Cube.188","primitives":[{"attributes":{"POSITION":0,"NORMAL":1,"TEXCOORD_0":2},"indices":3,"material":0}]},{"name":"Cube.190","primitives":[{"attributes":{"POSITION":4,"NORMAL":5,"TEXCOORD_0":6},"indices":7,"material":1}]},{"name":"Cube.274","primitives":[{"attributes":{"POSITION":8,"NORMAL":9,"TEXCOORD_0":10},"indices":11,"material":2}]},{"name":"Cube.358","primitives":[{"attributes":{"POSITION":12,"NORMAL":13,"TEXCOORD_0":14},"indices":15,"material":3}]},{"name":"Smooth model trees.001","primitives":[{"attributes":{"POSITION":16,"NORMAL":17,"TEXCOORD_0":18},"indices":19,"material":4}]}],"textures":[{"sampler":0,"source":0},{"sampler":0,"source":1},{"sampler":0,"source":2},{"sampler":0,"source":3},{"sampler":0,"source":4}],"images":[{"bufferView":4,"mimeType":"image/jpeg","name":"Site_BakedLight"},{"bufferView":9,"mimeType":"image/jpeg","name":"Residential_West_BakedLight"},{"bufferView":14,"mimeType":"image/jpeg","name":"Residential_East_BakedLight"},{"bufferView":19,"mimeType":"image/jpeg","name":"Commercial_Campus_BakedLight"},{"bufferView":24,"mimeType":"image/jpeg","name":"Landscape_BakedLight"}],"accessors":[{"bufferView":0,"componentType":5126,"count":4850,"max":[3.5999999046325684,0.05269999802112579,3.6999998092651367],"min":[-3.5999999046325684,-0.04999999701976776,-3.6999998092651367],"type":"VEC3"},{"bufferView":1,"componentType":5126,"count":4850,"type":"VEC3"},{"bufferView":2,"componentType":5126,"count":4850,"type":"VEC2"},{"bufferView":3,"componentType":5123,"count":8082,"type":"SCALAR"},{"bufferView":5,"componentType":5126,"count":18912,"max":[0.14224998652935028,1.5627501010894775,0.3199999928474426],"min":[-0.7647499442100525,-0.03725000098347664,-3.7335000038146973],"type":"VEC3"},{"bufferView":6,"componentType":5126,"count":18912,"type":"VEC3"},{"bufferView":7,"componentType":5126,"count":18912,"type":"VEC2"},{"bufferView":8,"componentType":5123,"count":28368,"type":"SCALAR"},{"bufferView":10,"componentType":5126,"count":18144,"max":[0.14224998652935028,1.5627501010894775,0.23350001871585846],"min":[-0.14224998652935028,-0.03674999997019768,-3.7335000038146973],"type":"VEC3"},{"bufferView":11,"componentType":5126,"count":18144,"type":"VEC3"},{"bufferView":12,"componentType":5126,"count":18144,"type":"VEC2"},{"bufferView":13,"componentType":5123,"count":27216,"type":"SCALAR"},{"bufferView":15,"componentType":5126,"count":236005,"max":[1.6639999151229858,1.3249999284744263,0.8715997338294983],"min":[-2.2910001277923584,-0.3725000023841858,-4.787092685699463],"type":"VEC3"},{"bufferView":16,"componentType":5126,"count":236005,"type":"VEC3"},{"bufferView":17,"componentType":5126,"count":236005,"type":"VEC2"},{"bufferView":18,"componentType":5125,"count":628164,"type":"SCALAR"},{"bufferView":20,"componentType":5126,"count":156512,"max":[3.5855813026428223,0.0989999920129776,2.950955629348755],"min":[-3.5760698318481445,0.001500000013038516,-4.188290119171143],"type":"VEC3"},{"bufferView":21,"componentType":5126,"count":156512,"type":"VEC3"},{"bufferView":22,"componentType":5126,"count":156512,"type":"VEC2"},{"bufferView":23,"componentType":5125,"count":609300,"type":"SCALAR"}],"bufferViews":[{"buffer":0,"byteLength":58200,"byteOffset":0,"target":34962},{"buffer":0,"byteLength":58200,"byteOffset":58200,"target":34962},{"buffer":0,"byteLength":38800,"byteOffset":116400,"target":34962},{"buffer":0,"byteLength":16164,"byteOffset":155200,"target":34963},{"buffer":0,"byteLength":540143,"byteOffset":171364},{"buffer":0,"byteLength":226944,"byteOffset":711508,"target":34962},{"buffer":0,"byteLength":226944,"byteOffset":938452,"target":34962},{"buffer":0,"byteLength":151296,"byteOffset":1165396,"target":34962},{"buffer":0,"byteLength":56736,"byteOffset":1316692,"target":34963},{"buffer":0,"byteLength":1229213,"byteOffset":1373428},{"buffer":0,"byteLength":217728,"byteOffset":2602644,"target":34962},{"buffer":0,"byteLength":217728,"byteOffset":2820372,"target":34962},{"buffer":0,"byteLength":145152,"byteOffset":3038100,"target":34962},{"buffer":0,"byteLength":54432,"byteOffset":3183252,"target":34963},{"buffer":0,"byteLength":1191747,"byteOffset":3237684},{"buffer":0,"byteLength":2832060,"byteOffset":4429432,"target":34962},{"buffer":0,"byteLength":2832060,"byteOffset":7261492,"target":34962},{"buffer":0,"byteLength":1888040,"byteOffset":10093552,"target":34962},{"buffer":0,"byteLength":2512656,"byteOffset":11981592,"target":34963},{"buffer":0,"byteLength":2832725,"byteOffset":14494248},{"buffer":0,"byteLength":1878144,"byteOffset":17326976,"target":34962},{"buffer":1,"byteLength":1878144,"byteOffset":0,"target":34962},{"buffer":1,"byteLength":1252096,"byteOffset":1878144,"target":34962},{"buffer":1,"byteLength":2437200,"byteOffset":3130240,"target":34963},{"buffer":1,"byteLength":2756831,"byteOffset":5567440}],"samplers":[{"magFilter":9729,"minFilter":9987}],"buffers":[{"byteLength":19205120,"uri":"model-part-01.bin"},{"byteLength":8324271,"uri":"model-part-02.bin"}],"extensionsUsed":["KHR_materials_unlit"],"extensionsRequired":["KHR_materials_unlit"]}
